<svg width="1924" height="543" viewBox="0 0 1924 543" fill="none" xmlns="http://www.w3.org/2000/svg">
<path d="M3 543H1924V6.10352e-05H3V543Z" fill="url(#paint0_linear_436_120)"/>
<path d="M326.916 399.604C221.344 388.774 68.3168 404.116 5 413.141V0.501831H1923L1917.5 543H998.741C1214.68 340.04 991.743 340.775 853.279 366.513C636.935 423.871 412.227 412.473 326.916 399.604Z" fill="url(#paint1_linear_436_120)"/>
<path d="M290.765 383.919C112.909 390.605 22.8149 422.834 0 438.113V-0.000396729H516.083C529.273 29.9838 673.456 107.207 743.9 142.07C1292.96 505.223 513.086 375.562 290.765 383.919Z" fill="url(#paint2_linear_436_120)"/>
<path d="M1385.83 0.501099C1210.7 313.76 1670.31 334.117 1922 305.138V0.501099H1385.83Z" fill="url(#paint3_linear_436_120)"/>
<defs>
<linearGradient id="paint0_linear_436_120" x1="933.684" y1="543" x2="948.737" y2="-1.23296" gradientUnits="userSpaceOnUse">
<stop stop-color="#9DC9F1"/>
<stop offset="1" stop-color="#C1DFF0"/>
</linearGradient>
<linearGradient id="paint1_linear_436_120" x1="1205.03" y1="0.501876" x2="1111.88" y2="582.983" gradientUnits="userSpaceOnUse">
<stop stop-color="#D2EAEF"/>
<stop offset="0.520821" stop-color="#9DC9F0"/>
<stop offset="1" stop-color="#9AC7F0"/>
</linearGradient>
<linearGradient id="paint2_linear_436_120" x1="549.057" y1="46.0902" x2="507.086" y2="394.957" gradientUnits="userSpaceOnUse">
<stop stop-color="#B4D6ED"/>
<stop offset="1" stop-color="#84B8EF"/>
</linearGradient>
<linearGradient id="paint3_linear_436_120" x1="1889.4" y1="314.658" x2="1714.91" y2="-130.836" gradientUnits="userSpaceOnUse">
<stop stop-color="#D2EAEF"/>
<stop offset="1" stop-color="#C8E3F1"/>
</linearGradient>
</defs>
</svg>
