<svg width="125" height="41" viewBox="0 0 125 41" fill="none" xmlns="http://www.w3.org/2000/svg">
<path d="M121.106 25.0569L124.574 27.3678C123.449 29.0248 120.757 31.868 116.103 31.868C110.323 31.868 106.02 27.3983 106.02 21.7122C106.02 15.6615 110.369 11.5566 115.616 11.5566C120.894 11.5566 123.479 15.7526 124.316 18.0178L124.772 19.1734L111.175 24.7984C112.209 26.8357 113.822 27.8695 116.103 27.8695C118.384 27.8695 119.966 26.7445 121.106 25.0569ZM110.445 21.3932L119.525 17.6227C119.023 16.361 117.533 15.4641 115.753 15.4641C113.487 15.4641 110.339 17.4709 110.445 21.3932Z" fill="#FF302F"/>
<path d="M99.4646 1.20312H103.844V30.9403H99.4646V1.20312Z" fill="#20B15A"/>
<path d="M92.5598 12.3466H96.7878V30.4078C96.7878 37.9028 92.3621 40.989 87.1301 40.989C82.2026 40.989 79.2371 37.6749 78.1267 34.984L82.0049 33.3723C82.7043 35.0294 84.3926 36.9908 87.1301 36.9908C90.4912 36.9908 92.5598 34.9078 92.5598 31.016V29.5566H92.4077C91.4038 30.7727 89.4875 31.8673 87.0542 31.8673C81.9744 31.8673 77.3203 27.4432 77.3203 21.7422C77.3203 16.0105 81.9744 11.541 87.0542 11.541C89.4724 11.541 91.4038 12.6204 92.4077 13.8063H92.5598V12.3466ZM92.8638 21.7422C92.8638 18.1542 90.4761 15.5392 87.4343 15.5392C84.3621 15.5392 81.7766 18.1542 81.7766 21.7422C81.7766 25.2843 84.3621 27.8536 87.4343 27.8536C90.4763 27.869 92.864 25.2843 92.864 21.7422" fill="#3686F7"/>
<path d="M53.2754 21.6668C53.2754 27.52 48.7129 31.8223 43.116 31.8223C37.5193 31.8223 32.9565 27.5049 32.9565 21.6668C32.9565 15.7833 37.5193 11.4961 43.116 11.4961C48.7129 11.4961 53.2754 15.7833 53.2754 21.6668ZM48.8345 21.6668C48.8345 18.0183 46.188 15.5095 43.116 15.5095C40.0439 15.5095 37.3975 18.0183 37.3975 21.6668C37.3975 25.285 40.0439 27.8241 43.116 27.8241C46.1882 27.8241 48.8345 25.285 48.8345 21.6668Z" fill="#FF302F"/>
<path d="M75.4651 21.7122C75.4651 27.5654 70.9023 31.8677 65.3057 31.8677C59.7087 31.8677 55.1462 27.5652 55.1462 21.7122C55.1462 15.8287 59.7087 11.5566 65.3057 11.5566C70.9023 11.5566 75.4651 15.8136 75.4651 21.7122ZM71.0088 21.7122C71.0088 18.0637 68.3625 15.5549 65.2903 15.5549C62.218 15.5549 59.5718 18.0637 59.5718 21.7122C59.5718 25.3304 62.2183 27.8695 65.2903 27.8695C68.3777 27.8695 71.0088 25.3153 71.0088 21.7122Z" fill="#FFBA40"/>
<path d="M16.2573 27.4129C9.88476 27.4129 4.89648 22.2742 4.89648 15.9041C4.89648 9.53423 9.88476 4.39557 16.2573 4.39557C19.6946 4.39557 22.2039 5.74857 24.0593 7.48179L27.1165 4.42607C24.531 1.94801 21.0786 0.0625 16.2573 0.0625C7.52759 0.062744 0.181641 7.17795 0.181641 15.9041C0.181641 24.6303 7.52759 31.7457 16.2573 31.7457C20.9722 31.7457 24.531 30.1951 27.3142 27.3065C30.1733 24.4482 31.0554 20.4346 31.0554 17.1812C31.0554 16.1626 30.9338 15.1136 30.7969 14.3383H16.2573V18.5647H26.6145C26.3103 21.2102 25.4739 23.0193 24.2419 24.2505C22.7515 25.7558 20.3943 27.4129 16.2573 27.4129Z" fill="#3686F7"/>
</svg>
