<svg width="70" height="71" viewBox="0 0 70 71" fill="none" xmlns="http://www.w3.org/2000/svg">
<path d="M1.49355 34.8507C1.49191 40.778 3.04066 46.5656 5.98559 51.6668L1.21191 69.0963L19.0488 64.4194C23.9823 67.1051 29.5098 68.5124 35.1269 68.5128H35.1417C53.6848 68.5128 68.7794 53.4237 68.7873 34.8772C68.7909 25.8902 65.2942 17.4393 58.9411 11.0813C52.5892 4.72391 44.1413 1.2209 35.1403 1.2168C16.595 1.2168 1.50148 16.3051 1.49383 34.8507" fill="url(#paint0_linear_586_322)"/>
<path d="M0.292578 34.8403C0.290664 40.9809 1.89492 46.9755 4.94484 52.2594L0 70.3136L18.4764 65.4691C23.5673 68.2448 29.2991 69.7082 35.1315 69.7104H35.1466C54.355 69.7104 69.9918 54.0786 70 34.8682C70.0033 25.5582 66.3808 16.8036 59.8008 10.2178C53.22 3.63289 44.47 0.00382813 35.1466 0C15.9348 0 0.300234 15.6297 0.292578 34.8403ZM11.296 51.3494L10.6061 50.2543C7.70602 45.643 6.17531 40.3143 6.1775 34.8425C6.18352 18.8751 19.1784 5.88438 35.1575 5.88438C42.8958 5.88766 50.1681 8.90422 55.638 14.3773C61.1075 19.851 64.1173 27.1272 64.1154 34.866C64.1082 50.8334 51.1131 63.8258 35.1466 63.8258H35.1351C29.9362 63.823 24.8374 62.4269 20.3908 59.7885L19.3326 59.1609L8.36828 62.0356L11.296 51.3494Z" fill="url(#paint1_linear_586_322)"/>
<path d="M26.4354 20.275C25.7829 18.825 25.0963 18.7957 24.4759 18.7703C23.9679 18.7484 23.3871 18.75 22.8068 18.75C22.2261 18.75 21.2824 18.9685 20.4848 19.8394C19.6864 20.7111 17.4365 22.8177 17.4365 27.1022C17.4365 31.3867 20.5573 35.5276 20.9923 36.1092C21.4279 36.6897 27.017 45.7635 35.8687 49.2542C43.2252 52.1551 44.7223 51.5781 46.3189 51.4326C47.9158 51.2877 51.4716 49.3266 52.197 47.2931C52.923 45.2598 52.923 43.5169 52.7053 43.1527C52.4877 42.7898 51.9069 42.5719 51.036 42.1366C50.1651 41.7013 45.8833 39.5942 45.0852 39.3035C44.2867 39.0131 43.7062 38.8682 43.1254 39.7402C42.5446 40.6108 40.877 42.5719 40.3686 43.1527C39.8609 43.7348 39.3525 43.8073 38.4819 43.3717C37.6105 42.9348 34.8058 42.0163 31.4784 39.0498C28.8895 36.7414 27.1416 33.8908 26.6336 33.0188C26.1255 32.1482 26.5792 31.6762 27.0159 31.2423C27.4071 30.8521 27.887 30.2254 28.3229 29.7171C28.7571 29.2085 28.902 28.8456 29.1924 28.2648C29.4831 27.6835 29.3376 27.1749 29.1202 26.7393C28.902 26.3037 27.2097 21.9968 26.4354 20.275Z" fill="white"/>
<defs>
<linearGradient id="paint0_linear_586_322" x1="3379.98" y1="6789.17" x2="3379.98" y2="1.2168" gradientUnits="userSpaceOnUse">
<stop stop-color="#1FAF38"/>
<stop offset="1" stop-color="#60D669"/>
</linearGradient>
<linearGradient id="paint1_linear_586_322" x1="3500" y1="7031.36" x2="3500" y2="0" gradientUnits="userSpaceOnUse">
<stop stop-color="#F9F9F9"/>
<stop offset="1" stop-color="white"/>
</linearGradient>
</defs>
</svg>
